<svg width="625" height="193" viewBox="0 0 625 193" fill="none" xmlns="http://www.w3.org/2000/svg">
<path d="M1 28.5L10.5 4L17 28.5L26 16.5L34 28.5L43 22L49 28.5L61.5 37.5L71.5 28.5L86 46L95.5 28.5L109 16.5L123.5 28.5L140.5 104L163.5 86.5L184 95.5L202 86.5L217.5 95.5L233.5 36.5L250.5 54L269 36.5L280 72L292.5 36.5L305 45.5L322 36.5L334.5 24.5L348 36.5L365 45.5L374.5 36.5L388 71.5L402.5 78L420.5 95.5L433.5 104L456 97.5L467 104L479.5 139.5L492.5 104L505.5 71.5L516 104H540L549 121.5L562.5 104L582 79.5L598.5 104L611 139.5L624 104" stroke="#3A6FF8" stroke-width="2" stroke-linecap="round"/>
<path opacity="0.02" d="M10.5 4L1 28.5V192H624V104L611 139.5L598.5 104L582 79.5L562.5 104L549 121.5L540 104H516L505.5 71.5L492.5 104L479.5 139.5L467 104L456 97.5L433.5 104L420.5 95.5L402.5 78L388 71.5L374.5 36.5L365 45.5L348 36.5L334.5 24.5L322 36.5L305 45.5L292.5 36.5L280 72L269 36.5L250.5 54L233.5 36.5L217.5 95.5L202 86.5L184 95.5L163.5 86.5L140.5 104L123.5 28.5L109 16.5L95.5 28.5L86 46L71.5 28.5L61.5 37.5L49 28.5L43 22L34 28.5L26 16.5L17 28.5L10.5 4Z" fill="#3A6FF8"/>
<g opacity="0.1">
<rect x="1" y="177" width="8" height="16" fill="#3A6FF8"/>
<rect x="14" y="171" width="8" height="22" fill="#3A6FF8"/>
<rect x="27" y="161" width="8" height="32" fill="#3A6FF8"/>
<rect x="40" y="176" width="8" height="17" fill="#3A6FF8"/>
<rect x="53" y="183" width="8" height="10" fill="#3A6FF8"/>
<rect x="66" y="180" width="8" height="13" fill="#3A6FF8"/>
<rect x="79" y="169" width="8" height="24" fill="#3A6FF8"/>
<rect x="92" y="179" width="8" height="14" fill="#3A6FF8"/>
<rect x="105" y="185" width="8" height="8" fill="#3A6FF8"/>
<rect x="118" y="177" width="8" height="16" fill="#3A6FF8"/>
<rect x="131" y="171" width="8" height="22" fill="#3A6FF8"/>
<rect x="144" y="161" width="8" height="32" fill="#3A6FF8"/>
<rect x="157" y="176" width="8" height="17" fill="#3A6FF8"/>
<rect x="170" y="183" width="8" height="10" fill="#3A6FF8"/>
<rect x="183" y="179" width="8" height="14" fill="#3A6FF8"/>
<rect x="196" y="185" width="8" height="8" fill="#3A6FF8"/>
<rect x="209" y="161" width="8" height="32" fill="#3A6FF8"/>
<rect x="222" y="176" width="8" height="17" fill="#3A6FF8"/>
<rect x="235" y="183" width="8" height="10" fill="#3A6FF8"/>
<rect x="248" y="180" width="8" height="13" fill="#3A6FF8"/>
<rect x="261" y="169" width="8" height="24" fill="#3A6FF8"/>
<rect x="274" y="177" width="8" height="16" fill="#3A6FF8"/>
<rect x="287" y="179" width="8" height="14" fill="#3A6FF8"/>
<rect x="300" y="185" width="8" height="8" fill="#3A6FF8"/>
<rect x="313" y="161" width="8" height="32" fill="#3A6FF8"/>
<rect x="326" y="176" width="8" height="17" fill="#3A6FF8"/>
<rect x="339" y="183" width="8" height="10" fill="#3A6FF8"/>
<rect x="352" y="179" width="8" height="14" fill="#3A6FF8"/>
<rect x="365" y="185" width="8" height="8" fill="#3A6FF8"/>
<rect x="378" y="161" width="8" height="32" fill="#3A6FF8"/>
<rect x="391" y="176" width="8" height="17" fill="#3A6FF8"/>
<rect x="404" y="183" width="8" height="10" fill="#3A6FF8"/>
<rect x="417" y="169" width="8" height="24" fill="#3A6FF8"/>
<rect x="430" y="179" width="8" height="14" fill="#3A6FF8"/>
<rect x="443" y="185" width="8" height="8" fill="#3A6FF8"/>
<rect x="456" y="177" width="8" height="16" fill="#3A6FF8"/>
<rect x="469" y="171" width="8" height="22" fill="#3A6FF8"/>
<rect x="482" y="161" width="8" height="32" fill="#3A6FF8"/>
<rect x="495" y="176" width="8" height="17" fill="#3A6FF8"/>
<rect x="508" y="183" width="8" height="10" fill="#3A6FF8"/>
<rect x="521" y="179" width="8" height="14" fill="#3A6FF8"/>
<rect x="534" y="185" width="8" height="8" fill="#3A6FF8"/>
<rect x="547" y="171" width="8" height="22" fill="#3A6FF8"/>
<rect x="560" y="161" width="8" height="32" fill="#3A6FF8"/>
<rect x="573" y="176" width="8" height="17" fill="#3A6FF8"/>
<rect x="586" y="183" width="8" height="10" fill="#3A6FF8"/>
<rect x="599" y="171" width="8" height="22" fill="#3A6FF8"/>
<rect x="612" y="161" width="8" height="32" fill="#3A6FF8"/>
</g>
</svg>
